<?xml version="1.0" encoding="utf-8"?>
<!-- Generator: Adobe Illustrator 16.0.0, SVG Export Plug-In . SVG Version: 6.00 Build 0)  -->
<!DOCTYPE svg PUBLIC "-//W3C//DTD SVG 1.1//EN" "http://www.w3.org/Graphics/SVG/1.1/DTD/svg11.dtd">
<svg version="1.1" xmlns="http://www.w3.org/2000/svg" xmlns:xlink="http://www.w3.org/1999/xlink" x="0px" y="0px" width="213px"
	 height="46.167px" viewBox="0 0 213 46.167" enable-background="new 0 0 213 46.167" xml:space="preserve">
<g id="圖層_2">
</g>
<g id="圖層_1">
	<g>
		<path fill="#3877BD" d="M44.509,35.688l5.818-27.789h9.498c2.059,0,3.5,0.063,4.322,0.189c1.365,0.189,2.521,0.568,3.469,1.137
			s1.668,1.326,2.16,2.275c0.494,0.947,0.74,1.996,0.74,3.146c0,1.541-0.43,2.879-1.289,4.01s-2.188,1.986-3.98,2.568
			c1.428,0.391,2.543,1.09,3.346,2.094c0.803,1.006,1.203,2.141,1.203,3.402c0,1.67-0.475,3.252-1.422,4.75
			c-0.947,1.496-2.256,2.574-3.924,3.232c-1.668,0.656-3.949,0.984-6.844,0.984H44.509z M51.161,31.215h5.518
			c2.313,0,3.863-0.148,4.652-0.445c0.791-0.297,1.422-0.787,1.896-1.471c0.475-0.682,0.711-1.402,0.711-2.16
			c0-0.922-0.342-1.684-1.023-2.285c-0.684-0.6-1.82-0.9-3.412-0.9h-6.824L51.161,31.215z M53.683,19.119h4.359
			c1.959,0,3.369-0.139,4.229-0.416s1.504-0.732,1.934-1.365c0.43-0.631,0.645-1.309,0.645-2.027c0-0.709-0.203-1.289-0.607-1.744
			s-0.979-0.76-1.725-0.91c-0.416-0.076-1.422-0.113-3.014-0.113h-4.436L53.683,19.119z"/>
		<path fill="#3877BD" d="M78.288,35.688h-5.725l5.818-27.789h11.299c2.01,0,3.598,0.236,4.768,0.711
			c1.168,0.473,2.096,1.258,2.777,2.35c0.682,1.094,1.023,2.398,1.023,3.914c0,1.404-0.271,2.768-0.814,4.096
			c-0.545,1.326-1.211,2.389-2,3.184c-0.791,0.797-1.641,1.4-2.551,1.811c-0.91,0.412-2.135,0.725-3.678,0.939
			c-0.896,0.125-2.578,0.189-5.041,0.189h-3.658L78.288,35.688z M81.454,20.484h1.762c3.021,0,5.037-0.189,6.049-0.568
			c1.01-0.379,1.807-0.986,2.387-1.82c0.582-0.834,0.873-1.75,0.873-2.748c0-0.67-0.148-1.219-0.445-1.648s-0.715-0.742-1.252-0.939
			c-0.537-0.195-1.734-0.293-3.592-0.293h-4.094L81.454,20.484z"/>
		<path fill="#3877BD" d="M114.456,35.688h-5.42l-1.006-23.221l-4.416,23.221h-5.156l5.801-27.789h8.15l0.854,19.467l9.479-19.467
			h8.246l-5.82,27.789h-5.213l5.479-23.051L114.456,35.688z"/>
		<path fill="#3877BD" d="M136.522,35.688h-5.725l5.818-27.789h11.299c2.01,0,3.598,0.236,4.768,0.711
			c1.168,0.473,2.096,1.258,2.777,2.35c0.682,1.094,1.023,2.398,1.023,3.914c0,1.404-0.271,2.768-0.814,4.096
			c-0.545,1.326-1.211,2.389-2,3.184c-0.791,0.797-1.641,1.4-2.551,1.811c-0.91,0.412-2.135,0.725-3.678,0.939
			c-0.896,0.125-2.578,0.189-5.041,0.189h-3.658L136.522,35.688z M139.688,20.484h1.762c3.021,0,5.037-0.189,6.049-0.568
			c1.01-0.379,1.807-0.986,2.387-1.82c0.582-0.834,0.873-1.75,0.873-2.748c0-0.67-0.148-1.219-0.445-1.648s-0.715-0.742-1.252-0.939
			c-0.537-0.195-1.734-0.293-3.592-0.293h-4.094L139.688,20.484z"/>
		<path fill="#3877BD" d="M156.636,35.688l5.818-27.789h5.422l-5.801,27.789H156.636z"/>
		<path fill="#3877BD" d="M171.63,15.557h5.439l-2.482,11.924c-0.303,1.428-0.455,2.318-0.455,2.672c0,0.582,0.215,1.08,0.645,1.498
			c0.43,0.416,0.979,0.625,1.648,0.625c0.48,0,0.955-0.092,1.422-0.275c0.469-0.182,0.949-0.461,1.441-0.834
			c0.492-0.371,0.936-0.799,1.326-1.279c0.393-0.48,0.76-1.111,1.1-1.895c0.24-0.582,0.5-1.529,0.777-2.844l2.01-9.592h5.441
			l-4.209,20.131h-5.08l0.568-2.729c-2.225,2.135-4.645,3.203-7.26,3.203c-1.656,0-2.957-0.475-3.906-1.422
			c-0.947-0.947-1.422-2.219-1.422-3.811c0-0.695,0.215-2.078,0.645-4.15L171.63,15.557z"/>
		<path fill="#3877BD" d="M190.474,30.059l5.27-0.834c0.467,1.111,1.049,1.898,1.744,2.359c0.693,0.461,1.643,0.691,2.842,0.691
			c1.24,0,2.23-0.277,2.977-0.834c0.52-0.379,0.777-0.84,0.777-1.383c0-0.367-0.133-0.695-0.398-0.986
			c-0.277-0.277-1.029-0.619-2.256-1.023c-3.285-1.088-5.32-1.947-6.104-2.578c-1.227-0.986-1.838-2.275-1.838-3.867
			s0.594-2.963,1.781-4.113c1.656-1.605,4.113-2.408,7.375-2.408c2.59,0,4.549,0.475,5.875,1.422
			c1.328,0.947,2.168,2.23,2.521,3.848l-5.023,0.873c-0.266-0.732-0.695-1.283-1.289-1.65c-0.809-0.492-1.781-0.738-2.918-0.738
			c-1.139,0-1.957,0.189-2.455,0.568c-0.5,0.379-0.75,0.814-0.75,1.309c0,0.506,0.254,0.922,0.758,1.25
			c0.316,0.203,1.334,0.557,3.053,1.063c2.654,0.771,4.43,1.529,5.326,2.275c1.264,1.049,1.896,2.313,1.896,3.791
			c0,1.908-0.803,3.563-2.408,4.967c-1.604,1.402-3.867,2.104-6.785,2.104c-2.908,0-5.154-0.533-6.74-1.602
			S191.042,31.992,190.474,30.059z"/>
	</g>
	
		<ellipse transform="matrix(0.868 0.4965 -0.4965 0.868 12.7663 -5.4637)" fill="#3877BD" cx="16.662" cy="21.285" rx="1.645" ry="1.888"/>
	<g>
		<polygon fill="#3877BD" points="9.404,34.894 9.414,34.899 9.405,34.864 		"/>
		<path fill="#3877BD" d="M7.276,14.458l0.356-2.16c-0.325,0.439-0.637,0.886-0.932,1.339l-0.154,1.893
			C6.78,15.168,7.021,14.81,7.276,14.458z"/>
		<path fill="#3877BD" d="M6.016,16.391l-0.045-1.576c-0.141,0.242-0.28,0.486-0.415,0.732L5.72,16.9
			C5.814,16.729,5.916,16.56,6.016,16.391z"/>
		<path fill="#3877BD" d="M4.466,19.524l-0.52-0.454c-0.117,0.313-0.227,0.627-0.328,0.941l0.54,0.311
			C4.256,20.056,4.357,19.79,4.466,19.524z"/>
		<path fill="#3877BD" d="M5.72,16.9l-0.164-1.354c-0.148,0.271-0.294,0.546-0.433,0.822l0.266,1.15
			C5.496,17.312,5.605,17.104,5.72,16.9z"/>
		<path fill="#3877BD" d="M7.882,13.653c0.805-1.027,1.671-1.966,2.581-2.815l0.084-1.91c-0.841,0.828-1.645,1.726-2.401,2.69
			c-0.176,0.224-0.345,0.452-0.513,0.68l-0.356,2.16C7.472,14.186,7.674,13.917,7.882,13.653z"/>
		<path fill="#3877BD" d="M6.547,15.529l0.154-1.893c-0.255,0.389-0.498,0.782-0.73,1.178l0.045,1.576
			C6.187,16.101,6.364,15.813,6.547,15.529z"/>
		<path fill="#3877BD" d="M4.757,18.839l-0.429-0.741c-0.097,0.231-0.186,0.461-0.274,0.693l0.476,0.569
			C4.602,19.186,4.681,19.013,4.757,18.839z"/>
		<path fill="#3877BD" d="M5.389,17.52l-0.266-1.15c-0.148,0.292-0.291,0.586-0.425,0.881l0.363,0.928
			C5.167,17.958,5.274,17.739,5.389,17.52z"/>
		<path fill="#3877BD" d="M4.529,19.36l-0.476-0.569c-0.035,0.092-0.074,0.185-0.107,0.279l0.52,0.454
			C4.487,19.469,4.507,19.416,4.529,19.36z"/>
		<path fill="#3877BD" d="M5.062,18.178L4.698,17.25c-0.13,0.282-0.253,0.564-0.37,0.848l0.429,0.741
			C4.854,18.617,4.956,18.396,5.062,18.178z"/>
		<path fill="#3877BD" d="M7.563,37.578c-0.346-0.271-0.667-0.562-0.975-0.866l0.043,1.537c0.393,0.396,0.81,0.773,1.255,1.122
			c0.196,0.154,0.397,0.301,0.601,0.443l-0.209-1.722C8.036,37.931,7.797,37.761,7.563,37.578z"/>
		<path fill="#3877BD" d="M9.238,38.662l-0.07,1.597c0.544,0.332,1.107,0.624,1.688,0.873l-0.446-1.931
			C10.011,39.046,9.618,38.866,9.238,38.662z"/>
		<path fill="#3877BD" d="M8.278,38.093l0.209,1.722c0.223,0.156,0.449,0.305,0.681,0.444l0.07-1.597
			C8.91,38.488,8.591,38.3,8.278,38.093z"/>
		<path fill="#3877BD" d="M10.41,39.201l0.446,1.931c1.142,0.491,2.349,0.821,3.598,1l-0.842-2.147
			C12.501,39.865,11.428,39.603,10.41,39.201z"/>
		<path fill="#3877BD" d="M11.515,9.918l0.444-2.293c-0.48,0.412-0.951,0.848-1.412,1.303l-0.084,1.91
			C10.807,10.517,11.159,10.213,11.515,9.918z"/>
		<path fill="#3877BD" d="M6.362,36.48L6.127,37.7c0.164,0.188,0.33,0.371,0.505,0.549l-0.043-1.537
			C6.513,36.637,6.437,36.56,6.362,36.48z"/>
		<path fill="#3877BD" d="M33.563,27.049c-0.648,1.354-1.443,2.684-2.389,3.961l3.753,1.345c1.134-1.47,2.097-3.003,2.884-4.569
			L33.563,27.049z"/>
		<path fill="#3877BD" d="M4.341,33.57l-0.319,0.922c0.258,0.538,0.545,1.061,0.864,1.56l0.107-1.325
			C4.756,34.354,4.536,33.97,4.341,33.57z"/>
		<path fill="#3877BD" d="M16.984,39.941l1.319,2.277c1.477-0.136,2.977-0.455,4.467-0.954l-1.904-2.285
			C19.573,39.456,18.271,39.779,16.984,39.941z"/>
		<path fill="#3877BD" d="M3.099,22.15l0.492-0.004c0.009-0.034,0.017-0.07,0.025-0.104L3.099,22.15z"/>
		<path fill="#3877BD" d="M24.602,37.139l2.479,2.168c1.535-0.893,3.026-1.979,4.427-3.248l-3.175-1.825
			C27.154,35.356,25.9,36.329,24.602,37.139z"/>
		<path fill="#3877BD" d="M3.591,22.146L3.099,22.15l-0.081,0.018c-0.028,0.12-0.05,0.239-0.075,0.359l0.611-0.237
			C3.566,22.242,3.578,22.195,3.591,22.146z"/>
		<path fill="#3877BD" d="M4.158,20.322l-0.54-0.311c-0.111,0.339-0.215,0.68-0.31,1.018l0.546,0.196
			C3.949,20.925,4.05,20.623,4.158,20.322z"/>
		<path fill="#3877BD" d="M3.478,22.583l-0.623,0.364c-0.057,0.287-0.105,0.574-0.15,0.862l0.614-0.501
			C3.367,23.068,3.419,22.825,3.478,22.583z"/>
		<path fill="#3877BD" d="M3.021,22.15c-0.002,0.007-0.003,0.011-0.004,0.018l0.081-0.018H3.021z"/>
		<path fill="#3877BD" d="M3.554,22.29l-0.611,0.237c-0.029,0.141-0.062,0.279-0.088,0.42l0.623-0.364
			C3.501,22.486,3.528,22.389,3.554,22.29z"/>
		<path fill="#3877BD" d="M3.854,21.226l-0.546-0.196c-0.07,0.251-0.134,0.501-0.195,0.751l0.547,0.094
			C3.721,21.66,3.788,21.443,3.854,21.226z"/>
		<path fill="#3877BD" d="M3.616,22.043c0.017-0.056,0.028-0.111,0.044-0.169L3.113,21.78c-0.03,0.123-0.063,0.247-0.092,0.37h0.077
			L3.616,22.043z"/>
		<path fill="#3877BD" d="M3.05,24.987l-0.544,0.574c-0.051,0.693-0.068,1.379-0.053,2.054l0.472-0.625
			C2.93,26.332,2.972,25.662,3.05,24.987z"/>
		<path fill="#3877BD" d="M3.058,29.214l-0.409,0.678c0.084,0.568,0.192,1.127,0.329,1.674l0.372-0.768
			C3.226,30.282,3.128,29.754,3.058,29.214z"/>
		<path fill="#3877BD" d="M3.318,23.309L2.704,23.81c-0.09,0.588-0.155,1.173-0.198,1.752l0.544-0.574
			C3.113,24.432,3.204,23.871,3.318,23.309z"/>
		<path fill="#3877BD" d="M3.35,30.798l-0.372,0.768c0.248,0.991,0.585,1.941,1.007,2.843L4.18,33.22
			C3.831,32.452,3.552,31.643,3.35,30.798z"/>
		<path fill="#3877BD" d="M2.925,26.99l-0.472,0.625c0.021,0.772,0.085,1.533,0.195,2.276l0.409-0.678
			C2.965,28.491,2.922,27.747,2.925,26.99z"/>
		<path fill="#3877BD" d="M4.18,33.22l-0.195,1.188c0.014,0.026,0.024,0.054,0.037,0.084l0.319-0.922
			C4.283,33.455,4.233,33.335,4.18,33.22z"/>
		<path fill="#3877BD" d="M4.993,34.727l-0.107,1.325c0.371,0.58,0.783,1.132,1.241,1.648l0.235-1.22
			C5.849,35.941,5.392,35.354,4.993,34.727z"/>
		<path fill="#3877BD" d="M35.31,21.876l4.637-0.039c0.561-2.524,0.688-5.022,0.372-7.356l-4.848,1
			C35.806,17.495,35.753,19.668,35.31,21.876z"/>
		<path fill="#3877BD" d="M31.051,7.67c1.051,0.824,1.919,1.813,2.612,2.92l4.768-1.852c-0.859-1.515-1.986-2.854-3.385-3.953
			C34.898,4.669,34.75,4.56,34.599,4.45l-4.445,2.589C30.46,7.235,30.761,7.441,31.051,7.67z"/>
		<path fill="#3877BD" d="M14.47,7.836l1.47-3.035c-0.723,0.417-1.437,0.875-2.135,1.376l-0.932,2.695
			C13.397,8.499,13.931,8.154,14.47,7.836z"/>
		<path fill="#3877BD" d="M25.358,5.311l3.867-3.16c-1.411-0.276-2.882-0.351-4.382-0.231l-3.198,3.385
			C22.91,5.146,24.157,5.146,25.358,5.311z"/>
		<path fill="#3877BD" d="M18.811,5.911l2.544-3.379c-0.899,0.242-1.798,0.55-2.688,0.922l-1.962,3.238
			C17.401,6.388,18.104,6.124,18.811,5.911z"/>
		<path fill="#3877BD" d="M12.138,11.002l0.212-0.614c-0.374,0.288-0.741,0.594-1.104,0.912l-0.066,0.348
			C11.494,11.419,11.813,11.204,12.138,11.002z"/>
		<path fill="#3877BD" d="M14.934,9.613l0.816-1.348c-0.695,0.341-1.381,0.729-2.054,1.166l-0.454,0.938
			C13.799,10.082,14.363,9.828,14.934,9.613z"/>
		<g>
			<path fill="#3877BD" d="M4.093,28.378c0.03,0.232,0.05,0.469,0.092,0.695l0.231-0.479c-0.043-0.157-0.071-0.323-0.108-0.485
				L4.093,28.378z"/>
		</g>
		<path fill="#3877BD" d="M3.969,25.631c-0.034,0.689-0.022,1.367,0.03,2.029l0.151-0.248C4.05,26.831,3.989,26.236,3.969,25.631z"
			/>
		<path fill="#3877BD" d="M9.459,13.069c0.307-0.288,0.622-0.563,0.942-0.826l0.007-0.159C10.085,12.4,9.768,12.729,9.459,13.069z"
			/>
		<path fill="#3877BD" d="M4.826,29.794l-0.233,0.922c0.112,0.345,0.243,0.682,0.386,1.011l0.257-1.04
			C5.037,30.314,4.98,30.191,4.826,29.794z"/>
		<path fill="#3877BD" d="M24.901,10.1l3.421-1.993c-1.383-0.842-2.938-1.325-4.581-1.476l-2.678,2.186
			C22.422,8.99,23.721,9.413,24.901,10.1z"/>
		<path fill="#3877BD" d="M18.349,8.794l1.903-2.016c-0.869,0.15-1.746,0.383-2.618,0.692l-1.272,1.688
			C17.025,8.985,17.688,8.863,18.349,8.794z"/>
		<path fill="#3877BD" d="M29.624,16.685l3.646-0.751c-0.253-1.664-0.801-3.208-1.643-4.552l-3.725,1.448
			C28.722,13.97,29.297,15.274,29.624,16.685z"/>
		<path fill="#3877BD" d="M26.279,29.708c-0.627,0.798-1.304,1.525-2.02,2.181l2.103,1.21c0.907-0.824,1.771-1.743,2.568-2.758
			c0.027-0.034,0.053-0.071,0.08-0.106l-2.464-0.882C26.458,29.472,26.371,29.591,26.279,29.708z"/>
		<path fill="#3877BD" d="M17.97,35.5l1.452,1.743c1.175-0.391,2.344-0.922,3.481-1.589l-1.734-1.518
			C20.13,34.724,19.055,35.182,17.97,35.5z"/>
		<path fill="#3877BD" d="M28.451,26.164l2.836,0.491c0.797-1.566,1.369-3.171,1.723-4.759l-3.247,0.027
			C29.534,23.34,29.096,24.771,28.451,26.164z"/>
		<path fill="#3877BD" d="M11.975,35.809l0.805,2.054c0.992,0.167,2.022,0.204,3.07,0.121l-1.125-1.941
			C13.788,36.076,12.865,35.997,11.975,35.809z"/>
		<path fill="#3877BD" d="M7.898,33.922c-0.047-0.037-0.091-0.077-0.137-0.116l0.233,1.941c0.029,0.021,0.055,0.046,0.083,0.069
			c0.398,0.313,0.816,0.587,1.248,0.832l0.078-1.755C8.88,34.618,8.375,34.296,7.898,33.922z"/>
		<g>
			<path fill="#3877BD" d="M6.473,32.538c-0.236-0.279-0.452-0.571-0.654-0.872l-0.17,1.353c0.264,0.443,0.547,0.871,0.872,1.268
				L6.473,32.538z"/>
		</g>
	</g>
	<path fill="#3877BD" d="M18.257,32.195L16.649,5.988c-0.286-0.343-0.354,0.059-0.354,0.059l0.477,25.826l0.231,12.523
		c0.687,0.069,1.355,0.107,2.009,0.123L18.257,32.195z"/>
	<path fill="#3877BD" d="M43.104,15.364L6.898,22.898l-3.032,0.631c-0.079,0.439-0.128,0.863-0.145,1.262l2.994-0.676l36.549-8.254
		C43.598,15.392,43.104,15.364,43.104,15.364z"/>
	<path fill="#FFFFFF" d="M43.205,15.001L6.999,22.533l-3.032,0.632c-0.079,0.438-0.127,0.865-0.146,1.262l2.995-0.675l36.549-8.254
		C43.699,15.027,43.205,15.001,43.205,15.001z"/>
	<path fill="#FFFFFF" d="M17.623,31.802L16.016,5.596c-0.285-0.345-0.354,0.058-0.354,0.058l0.478,25.827l0.23,12.521
		c0.687,0.069,1.355,0.108,2.009,0.124L17.623,31.802z"/>
	
		<ellipse transform="matrix(0.8681 0.4963 -0.4963 0.8681 12.6282 -5.3349)" fill="#FFFFFF" cx="16.354" cy="21.098" rx="1.376" ry="1.794"/>
	
		<ellipse transform="matrix(0.9202 0.3915 -0.3915 0.9202 9.5454 -4.7426)" fill="#3877BD" cx="16.403" cy="21.037" rx="0.196" ry="0.256"/>
</g>
</svg>
